<svg xmlns="http://www.w3.org/2000/svg" fill="none" viewBox="0 0 200 200" height="200" width="200">
  <path fill="#2d4552" d="M66.63208333333334 109.514375c-7.310416666666667 2.074791666666667 -12.106458333333334 5.712291666666666 -15.265833333333335 9.347083333333334 3.0260416666666665 -2.648125 7.079375000000001 -5.078541666666667 12.547291666666668 -6.628541666666668 5.5925 -1.5850000000000002 10.363541666666666 -1.5735416666666666 14.305833333333334 -0.8129166666666667v-3.0827083333333336c-3.362916666666667 -0.30750000000000005 -7.218541666666668 -0.0625 -11.587291666666667 1.1770833333333333Zm-15.600000000000001 -25.91479166666667 -27.149583333333336 7.152708333333334s0.4947916666666667 0.6989583333333335 1.4108333333333334 1.6314583333333335l23.019583333333337 -6.065625000000001s-0.32625 4.203333333333333 -3.1589583333333335 7.963333333333334c5.358333333333334 -4.053958333333333 5.878125 -10.681875000000002 5.878125 -10.681875000000002Zm22.726041666666667 63.806250000000006C35.55125 157.69645833333334 15.337354166666668 113.41875000000002 9.217395833333333 90.43687500000001c-2.8275 -10.608333333333333 -4.061791666666667 -18.642500000000002 -4.390770833333334 -23.827291666666667 -0.035354166666666666 -0.5383333333333334 -0.019020833333333334 -0.9920833333333334 0.01904166666666667 -1.4079166666666667 -1.9819583333333335 0.11958333333333335 -2.9308458333333336 1.1497916666666665 -2.737791666666667 4.127083333333334 0.32897916666666666 5.181875 1.563291666666667 13.215625000000001 4.390791666666667 23.827291666666667C12.615895833333333 116.134375 32.8325 160.41208333333333 71.03958333333333 150.1216666666667c8.31625 -2.2404166666666665 14.563958333333336 -6.321041666666667 19.253958333333333 -11.530208333333334 -4.322916666666667 3.9043750000000004 -9.733333333333334 6.979166666666667 -16.53541666666667 8.814375Zm7.179791666666667 -90.90458333333333v2.7191666666666667h14.98625c-0.30750000000000005 -0.9627083333333334 -0.6172916666666667 -1.8302083333333334 -0.9247916666666668 -2.7191666666666667h-14.061458333333334Z" stroke-width="2.0833"></path>
  <path fill="#2d4552" d="M99.27416666666667 78.89458333333333c6.739583333333334 1.9139583333333334 10.304166666666667 6.639166666666667 12.188125000000001 10.820833333333335l7.514583333333334 2.1341666666666668s-1.0250000000000001 -14.634791666666668 -14.262708333333334 -18.395c-12.383958333333334 -3.518541666666667 -20.004791666666666 6.880833333333333 -20.93166666666667 8.226666666666667 3.6025000000000005 -2.566666666666667 8.863125 -4.667916666666668 15.491666666666667 -2.7866666666666666Zm59.81812500000001 10.888333333333334c-12.395208333333334 -3.534375 -20.013125 6.886666666666668 -20.926458333333336 8.213541666666668 3.6052083333333336 -2.5635416666666666 8.863125 -4.665625 15.48875 -2.7758333333333334 6.728750000000001 1.9170833333333335 10.290416666666667 6.6364583333333345 12.180208333333335 10.821041666666666l7.5254166666666675 2.1420833333333333s-1.0416666666666667 -14.637708333333334 -14.267916666666668 -18.400833333333335Zm-7.465833333333334 38.5875 -62.51229166666667 -17.47604166666667s0.6766666666666666 3.4310416666666668 3.2733333333333334 7.87375l52.63250000000001 14.713958333333336c4.333125 -2.5070833333333336 6.606458333333334 -5.111666666666666 6.606458333333334 -5.111666666666666ZM108.28645833333334 165.9872916666667C58.78895833333333 152.71666666666667 64.77291666666667 89.65020833333334 72.78229166666667 59.76520833333334c3.2977083333333335 -12.315833333333334 6.688125000000001 -21.46979166666667 9.499583333333334 -27.60604166666667 -1.6775000000000002 -0.34520833333333334 -3.066875 0.5383333333333334 -4.439791666666667 3.330416666666667 -2.9852083333333335 6.054791666666667 -6.802500000000001 15.912916666666668 -10.496875000000001 29.713333333333335 -8.007083333333334 29.884375000000002 -13.99125 92.94875 35.50416666666667 106.21937500000001 23.329583333333336 6.25 41.50395833333334 -3.249166666666667 55.052083333333336 -18.167083333333334 -12.859791666666668 11.6475 -29.278541666666666 18.177708333333335 -49.615 12.732083333333334Z" stroke-width="2.0833"></path>
  <path fill="#e2574c" d="M80.93833333333335 132.62645833333335V119.9l-35.359791666666666 10.026666666666667s2.6127083333333334 -15.18125 21.053958333333334 -20.4125c5.5925 -1.5850000000000002 10.364166666666668 -1.574166666666667 14.305833333333334 -0.8129166666666667V56.50104166666667h17.70479166666667c-1.9277083333333336 -5.956875000000001 -3.7925000000000004 -10.542916666666667 -5.358750000000001 -13.729583333333334 -2.591041666666667 -5.274375 -5.247083333333334 -1.7779166666666668 -11.277083333333335 3.265416666666667 -4.247083333333334 3.548125 -14.980625 11.117083333333333 -31.132500000000004 15.469583333333334 -16.152291666666667 4.355208333333334 -29.21041666666667 3.2002083333333338 -34.65883333333334 2.256666666666667 -7.724020833333334 -1.3325 -11.764104166666668 -3.02875 -11.386145833333334 2.8462500000000004 0.3289166666666667 5.181875 1.563291666666667 13.21625 4.390770833333334 23.827291666666667C15.337770833333334 113.41562500000002 35.554375 157.69333333333336 73.76125 147.40291666666667c9.980208333333334 -2.689166666666667 17.024583333333332 -8.004375 21.9075 -14.779166666666669h-14.730416666666667v0.0027083333333333334ZM23.880208333333336 90.75208333333335l27.152291666666667 -7.152708333333334s-0.7914583333333334 10.445416666666667 -10.970416666666667 13.128750000000002c-10.181666666666667 2.680625 -16.181875 -5.976041666666667 -16.181875 -5.976041666666667Z" stroke-width="2.0833"></path>
  <path fill="#2ead33" d="M183.125625 57.10416666666667c-7.057916666666667 1.2372916666666667 -23.990625 2.7787500000000005 -44.91645833333333 -2.8302083333333337 -20.93166666666667 -5.605625000000001 -34.819583333333334 -15.409791666666667 -40.321875000000006 -20.018125 -7.800000000000001 -6.533125 -11.231041666666668 -11.073541666666667 -14.607708333333335 -4.2058333333333335 -2.9852083333333335 6.057291666666668 -6.802708333333333 15.915625 -10.497708333333334 29.71604166666667 -8.006458333333335 29.884375000000002 -13.990416666666667 92.94875 35.504375 106.21916666666667 49.48437500000001 13.259375 75.82875 -44.35145833333333 83.83583333333334 -74.23854166666668 3.6950000000000003 -13.797708333333333 5.3152083333333335 -24.245833333333334 5.761041666666666 -30.98270833333334 0.5083333333333333 -7.631458333333334 -4.733541666666667 -5.416250000000001 -14.7575 -3.659791666666667ZM83.68166666666667 81.82875s7.800000000000001 -12.131250000000001 21.029374999999998 -8.371250000000002c13.237708333333334 3.7602083333333334 14.262708333333334 18.395208333333336 14.262708333333334 18.395208333333336l-35.29208333333334 -10.023958333333333ZM115.97500000000001 136.26666666666668c-23.269583333333333 -6.816458333333334 -26.858333333333334 -25.372083333333332 -26.858333333333334 -25.372083333333332l62.509375000000006 17.476666666666667c0 -0.002916666666666667 -12.617500000000001 14.626458333333334 -35.65104166666667 7.895416666666668Zm22.100833333333334 -38.133750000000006s7.789166666666667 -12.122916666666667 21.016041666666666 -8.352083333333335c13.226458333333333 3.7658333333333336 14.267916666666668 18.400833333333335 14.267916666666668 18.400833333333335l-35.28395833333333 -10.048750000000002Z" stroke-width="2.0833"></path>
  <path fill="#d65348" d="M68.58250000000001 123.404375 45.57916666666667 129.92395833333336s2.4987500000000002 -14.235208333333334 19.444583333333334 -19.876458333333332l-13.025625000000002 -48.883125 -1.125625 0.3420833333333334c-16.152083333333334 4.355833333333334 -29.210208333333334 3.2002083333333338 -34.65858333333333 2.256666666666667 -7.723979166666667 -1.3318750000000001 -11.764041666666667 -3.02875 -11.386145833333334 2.8468750000000003 0.32897916666666666 5.181875 1.563291666666667 13.215625000000001 4.390770833333334 23.827083333333334 6.117229166666667 22.97854166666667 26.333958333333335 67.25625000000001 64.540625 56.965833333333336l1.125625 -0.35354166666666664 -6.302291666666667 -23.645000000000003ZM23.880833333333335 90.75250000000001l27.152291666666667 -7.153125s-0.7914583333333334 10.445416666666667 -10.970208333333334 13.128750000000002c-10.181875 2.680625 -16.182083333333335 -5.975625000000001 -16.182083333333335 -5.975625000000001Z" stroke-width="2.0833"></path>
  <path fill="#1d8d22" d="m117.02458333333334 136.52187500000002 -1.0525 -0.25583333333333336c-23.269375 -6.815833333333334 -26.858333333333334 -25.371458333333337 -26.858333333333334 -25.371458333333337l32.23375 9.01 17.065208333333334 -65.57625 -0.20645833333333333 -0.05437500000000001c-20.93166666666667 -5.605625000000001 -34.81875 -15.409791666666667 -40.321875000000006 -20.018125 -7.800000000000001 -6.533125 -11.231041666666668 -11.073541666666667 -14.607708333333335 -4.2058333333333335 -2.982291666666667 6.057291666666668 -6.799791666666668 15.915625 -10.494791666666666 29.71604166666667 -8.006458333333335 29.884375000000002 -13.990416666666667 92.94875 35.504375 106.21875l1.014375 0.2285416666666667 7.723958333333334 -29.691458333333333ZM83.68166666666667 81.82895833333335s7.800000000000001 -12.131458333333335 21.029374999999998 -8.371458333333335c13.237708333333334 3.7602083333333334 14.262708333333334 18.395208333333336 14.262708333333334 18.395208333333336l-35.29208333333334 -10.02375Z" stroke-width="2.0833"></path>
  <path fill="#c04b41" d="m69.75458333333333 123.06916666666667 -6.168958333333334 1.7508333333333335c1.4572916666666669 8.215833333333334 4.026041666666667 16.100416666666668 8.058125 23.065833333333334 0.7016666666666667 -0.155 1.3977083333333336 -0.288125 2.1125000000000003 -0.4839583333333334 1.8733333333333335 -0.5054166666666667 3.610416666666667 -1.13125 5.282916666666667 -1.8137500000000002 -4.505 -6.685208333333334 -7.485208333333334 -14.384791666666668 -9.284583333333334 -22.518958333333337Zm-2.4089583333333335 -57.86583333333334c-3.1700000000000004 11.831875 -6.0060416666666665 28.862083333333334 -5.225416666666667 45.94375000000001 1.3972916666666666 -0.6064583333333334 2.8733333333333335 -1.1714583333333335 4.5129166666666665 -1.6366666666666667l1.1420833333333336 -0.25520833333333337c-1.3922916666666667 -18.24604166666667 1.6172916666666668 -36.83916666666667 5.007708333333334 -49.489583333333336 0.859375 -3.2002083333333338 1.7210416666666666 -6.176875000000001 2.58 -8.952916666666667 -1.383541666666667 0.8806250000000001 -2.8733333333333335 1.783125 -4.570208333333334 2.712916666666667 -1.1443750000000001 3.5320833333333335 -2.3000000000000003 7.392708333333334 -3.447083333333334 11.677708333333333Z" stroke-width="2.0833"></path>
</svg>